{"accessors":[{"bufferView":2,"componentType":5126,"count":2400,"max":[12.885245323181152,125.09056091308594,61.704612731933594],"min":[-5.986011981964111,-98.38839721679688,-74.27413940429688],"type":"VEC3"},{"bufferView":2,"byteOffset":28800,"componentType":5126,"count":2400,"max":[0.7834703922271729,0.9998884201049805,0.9722396731376648],"min":[-0.9999819993972778,-0.7918425798416138,-0.5700490474700928],"type":"VEC3"},{"bufferView":1,"componentType":5126,"count":2400,"max":[1,0.9961761832237244],"min":[0,0.009189069271087646],"type":"VEC2"},{"bufferView":0,"componentType":5125,"count":2400,"type":"SCALAR"},{"bufferView":2,"byteOffset":57600,"componentType":5126,"count":8400,"max":[9.31137466430664,17.12187385559082,21.96800994873047],"min":[-8.034409523010254,-54.57406997680664,-4.297991752624512],"type":"VEC3"},{"bufferView":2,"byteOffset":158400,"componentType":5126,"count":8400,"max":[0.999401330947876,0.9489973783493042,0.9707909226417542],"min":[-0.9993851184844971,-0.950552225112915,-0.9751105904579163],"type":"VEC3"},{"bufferView":1,"byteOffset":19200,"componentType":5126,"count":8400,"max":[0.7462370991706848,-0.4125000238418579],"min":[0.42605769634246826,-0.5774370431900024],"type":"VEC2"},{"bufferView":0,"byteOffset":9600,"componentType":5125,"count":8400,"type":"SCALAR"}],"asset":{"extras":{"author":"Cubic Studio (https://sketchfab.com/Cubic_Studio)","license":"CC-BY-4.0 (http://creativecommons.org/licenses/by/4.0/)","source":"https://sketchfab.com/3d-models/ikan-cupang-04404ebe815a4307a146da77c41d267f","title":"Ikan Cupang"},"generator":"Sketchfab-11.60.0","version":"2.0"},"bufferViews":[{"buffer":0,"byteLength":43200,"name":"floatBufferViews","target":34963},{"buffer":0,"byteLength":86400,"byteOffset":43200,"byteStride":8,"name":"floatBufferViews","target":34962},{"buffer":0,"byteLength":259200,"byteOffset":129600,"byteStride":12,"name":"floatBufferViews","target":34962}],"buffers":[{"byteLength":388800,"uri":"data:application/octet-stream;base64,"}],"extensionsRequired":["KHR_materials_pbrSpecularGlossiness"],"extensionsUsed":["KHR_materials_pbrSpecularGlossiness"],"images":[{"uri":"data:application/octet-stream;base64,"},{"uri":"data:application/octet-stream;base64,"},{"uri":"data:application/octet-stream;base64,"}],"materials":[{"alphaMode":"BLEND","doubleSided":true,"extensions":{"KHR_materials_pbrSpecularGlossiness":{"diffuseFactor":[1,1,1,1],"diffuseTexture":{"index":0},"glossinessFactor":0.4,"specularFactor":[1,1,1],"specularGlossinessTexture":{"index":1}}},"name":"Material_1"},{"doubleSided":true,"extensions":{"KHR_materials_pbrSpecularGlossiness":{"diffuseFactor":[1,1,1,1],"diffuseTexture":{"index":2},"glossinessFactor":0.4,"specularFactor":[1,1,1],"specularGlossinessTexture":{"index":2}}},"name":"Material_2"}],"meshes":[{"name":"Object_0","primitives":[{"attributes":{"NORMAL":1,"POSITION":0,"TEXCOORD_0":2},"indices":3,"material":0,"mode":4}]},{"name":"Object_1","primitives":[{"attributes":{"NORMAL":5,"POSITION":4,"TEXCOORD_0":6},"indices":7,"material":1,"mode":4}]}],"nodes":[{"children":[1],"matrix":[1,0,0,0,0,2.220446049250313e-16,-1,0,0,1,2.220446049250313e-16,0,0,0,0,1],"name":"Sketchfab_model"},{"children":[2,3],"name":"Cupang_Slayer_0830_1323_selected2Obj.obj.cleaner.materialmerger.gles"},{"mesh":0,"name":"Object_2"},{"mesh":1,"name":"Object_3"}],"samplers":[{"magFilter":9729,"minFilter":9987,"wrapS":10497,"wrapT":10497}],"scene":0,"scenes":[{"name":"Sketchfab_Scene","nodes":[0]}],"textures":[{"sampler":0,"source":0},{"sampler":0,"source":1},{"sampler":0,"source":2}]}